# xmcd
#
# Track frame offsets: 
#        150
#        12908
#        23454
#        38138
#        52256
#        69048
#        92846
#        119365
#        143419
#        169643
#        189264
#        203738
#        231930
#        250620
#        271979
#        307585
#        331434
#
# Disc length: 4749 seconds
#
# Revision: 0
# Processed by: cddbd v1.5.2PL0 Copyright (c) Steve Scherf et al.
# Submitted via: ExactAudioCopy v0.99pb4
#
DISCID=d2128b11
DTITLE=Various Artist - Gastroblues Paks 2008 július
DYEAR=2008
DGENRE=Blues
TTITLE0=Ian Siegal
TTITLE1=Ian Siegal
TTITLE2=Ian Siegal
TTITLE3=Erja Lyytinen
TTITLE4=Erja Lyytinen
TTITLE5=Varga János Combo
TTITLE6=T. Rogers
TTITLE7=LMT Connection
TTITLE8=Muckshow
TTITLE9=Saffron Monkey
TTITLE10=Saffron Monkey
TTITLE11=László Attila Band
TTITLE12=British Blues Quintet (Maggie Bell - vocal)
TTITLE13=British Blues Quintet (Zoot Money - vocal)
TTITLE14=British Blues Quintet (Miller Anderson - vocal)
TTITLE15=British Blues Quintet (Colin Hodkinson - vocal)
TTITLE16=British Blues Quintet (Maggie Bell - vocal)
EXTD=
EXTT0=
EXTT1=
EXTT2=
EXTT3=
EXTT4=
EXTT5=
EXTT6=
EXTT7=
EXTT8=
EXTT9=
EXTT10=
EXTT11=
EXTT12=
EXTT13=
EXTT14=
EXTT15=
EXTT16=
PLAYORDER=
